<svg width="36" height="26" viewBox="0 0 36 26" fill="none" xmlns="http://www.w3.org/2000/svg">
<path fill-rule="evenodd" clip-rule="evenodd" d="M2.09615 0.5C1.3527 0.5 0.75 1.12183 0.75 1.88889C0.75 2.65594 1.3527 3.27778 2.09615 3.27778H34.4038C35.1472 3.27778 35.75 2.65594 35.75 1.88889C35.75 1.12183 35.1472 0.5 34.4038 0.5H2.09615ZM0.75 13C0.75 12.2329 1.3527 11.6111 2.09615 11.6111H34.4038C35.1472 11.6111 35.75 12.2329 35.75 13C35.75 13.7671 35.1472 14.3889 34.4038 14.3889H2.09615C1.3527 14.3889 0.75 13.7671 0.75 13ZM0.75 24.1111C0.75 23.3442 1.3527 22.7222 2.09615 22.7222H34.4038C35.1472 22.7222 35.75 23.3442 35.75 24.1111C35.75 24.8781 35.1472 25.5 34.4038 25.5H2.09615C1.3527 25.5 0.75 24.8781 0.75 24.1111Z" fill="#7782A5"/>
</svg>
